<?xml version="1.0" encoding="UTF-8" standalone="no"?>
<!-- Generator: Adobe Illustrator 16.0.0, SVG Export Plug-In . SVG Version: 6.00 Build 0)  -->
<!DOCTYPE svg  PUBLIC '-//W3C//DTD SVG 1.1//EN'  'http://www.w3.org/Graphics/SVG/1.1/DTD/svg11.dtd' [
	<!ENTITY ns_extend "http://ns.adobe.com/Extensibility/1.0/">
	<!ENTITY ns_ai "http://ns.adobe.com/AdobeIllustrator/10.0/">
	<!ENTITY ns_graphs "http://ns.adobe.com/Graphs/1.0/">
	<!ENTITY ns_vars "http://ns.adobe.com/Variables/1.0/">
	<!ENTITY ns_imrep "http://ns.adobe.com/ImageReplacement/1.0/">
	<!ENTITY ns_sfw "http://ns.adobe.com/SaveForWeb/1.0/">
	<!ENTITY ns_custom "http://ns.adobe.com/GenericCustomNamespace/1.0/">
	<!ENTITY ns_adobe_xpath "http://ns.adobe.com/XPath/1.0/">
]>
<svg xmlns="http://www.w3.org/2000/svg" enable-background="new 0 0 210.351 38.655" xml:space="preserve" height="38.655px" width="38.655px" version="1.1" xmlns:xlink="http://www.w3.org/1999/xlink">
<switch>
	<g>
		<g id="design">
							<path d="m31.191 26.191c0.05 0.386-0.068 0.72-0.354 1.006l-3.343 3.319c-0.15 0.166-0.348 0.309-0.591 0.426s-0.482 0.193-0.716 0.227c-0.019 0-0.068 0.004-0.152 0.013-0.083 0.009-0.192 0.013-0.326 0.013-0.318 0-0.833-0.056-1.546-0.164s-1.585-0.377-2.616-0.803c-1.03-0.428-2.198-1.07-3.507-1.924-1.307-0.856-2.699-2.031-4.174-3.521-1.174-1.156-2.145-2.263-2.916-3.316-0.771-1.059-1.391-2.034-1.859-2.931-0.472-0.896-0.822-1.709-1.058-2.438-0.233-0.731-0.393-1.357-0.477-1.887-0.085-0.527-0.118-0.941-0.102-1.244 0.017-0.301 0.026-0.47 0.026-0.504 0.033-0.234 0.108-0.473 0.226-0.714 0.118-0.245 0.26-0.442 0.427-0.593l3.345-3.345c0.235-0.233 0.503-0.352 0.803-0.352 0.219 0 0.411 0.063 0.58 0.19 0.166 0.125 0.311 0.279 0.427 0.463l2.691 5.105c0.15 0.269 0.192 0.562 0.125 0.879-0.067 0.318-0.209 0.589-0.429 0.804l-1.231 1.235c-0.032 0.032-0.062 0.085-0.088 0.16-0.023 0.077-0.037 0.14-0.037 0.189 0.066 0.354 0.218 0.756 0.453 1.207 0.201 0.402 0.51 0.895 0.93 1.471 0.42 0.578 1.015 1.244 1.784 1.999 0.755 0.77 1.426 1.37 2.013 1.797 0.586 0.43 1.076 0.742 1.47 0.943 0.395 0.2 0.697 0.322 0.906 0.365l0.313 0.062c0.034 0 0.088-0.013 0.164-0.037 0.075-0.024 0.131-0.055 0.163-0.087l1.433-1.46c0.303-0.267 0.654-0.399 1.056-0.399 0.285 0 0.514 0.05 0.68 0.149h0.025l4.853 2.866c0.352 0.22 0.561 0.494 0.629 0.831z" fill="#333"/>
						<path d="m19.327 38.655c-10.658 0-19.327-8.67-19.327-19.328 0-10.657 8.669-19.327 19.327-19.327 10.656 0 19.329 8.67 19.329 19.327 0 10.658-8.673 19.328-19.329 19.328zm0-36.689c-9.574 0-17.362 7.787-17.362 17.361s7.788 17.361 17.362 17.361c9.573 0 17.361-7.787 17.361-17.361s-7.788-17.361-17.361-17.361z" fill="#333"/>
		</g>
	</g>
</switch>
</svg>
