<?xml version="1.0" encoding="UTF-8" standalone="no"?>
<!-- Generator: Adobe Illustrator 16.0.0, SVG Export Plug-In . SVG Version: 6.00 Build 0)  -->
<!DOCTYPE svg  PUBLIC '-//W3C//DTD SVG 1.1//EN'  'http://www.w3.org/Graphics/SVG/1.1/DTD/svg11.dtd' [
]>
<svg id="icons" xmlns="http://www.w3.org/2000/svg" enable-background="new 0 0 180.467 180.468" xml:space="preserve" height="180.47px" viewBox="0 0 180.467 180.468" width="180.47px" version="1.1" y="0px" x="0px" xmlns:xlink="http://www.w3.org/1999/xlink">
<switch>
	<g>
			<rect width="180.47" height="180.47" fill="#fff"/>
				<path d="m123.14 144.23c-0.364-0.004-0.739-0.017-1.146-0.051-0.135-0.006-0.261-0.008-0.382-0.027-0.383-0.031-0.727-0.076-1.053-0.123-0.113-0.015-0.215-0.037-0.328-0.054l-0.135-0.029c-0.213-0.036-0.428-0.083-0.645-0.128l-0.113-0.027c-0.139-0.029-0.277-0.061-0.421-0.1-0.276-0.064-0.554-0.147-0.843-0.242-0.194-0.058-0.394-0.128-0.639-0.213-0.109-0.044-0.223-0.084-0.332-0.124-0.43-0.16-0.846-0.336-1.246-0.524l-0.041-0.022c-0.021-0.015-0.049-0.021-0.071-0.038-0.929-0.441-1.796-0.959-2.579-1.521l-0.084-0.058 0.01-0.016c-3.856-2.823-6.371-7.134-6.915-11.857h-26.39c0.967 6.375 6.525 11.161 12.979 11.161 2.815 0 5.511-0.896 7.792-2.584v-0.025l0.043-0.032c0.546-0.407 1.002-0.798 1.395-1.185l0.076-0.074 2.883 2.753-0.063 0.079c-3.349 4.006-9.397 5.062-12.125 5.062-6.55 0-12.399-3.616-15.327-9.463-2.878 5.528-8.51 8.949-14.744 8.949-0.114 0-11.597-0.006-11.654-0.006l-0.102-0.002v-33.23l0.102-0.003c0.051 0 11.54-0.002 11.654-0.002 6.234 0 11.866 3.421 14.744 8.943 2.928-5.843 8.777-9.463 15.327-9.463 6.442 0 12.251 3.546 15.218 9.258 1.219-2.345 2.979-4.396 5.107-5.956l0.074-0.075c0.783-0.561 1.65-1.072 2.581-1.523 0.021-0.015 0.052-0.025 0.075-0.039l0.035-0.013c0.395-0.188 0.814-0.368 1.246-0.53 0.109-0.042 0.223-0.085 0.332-0.124 0.209-0.074 0.419-0.15 0.639-0.214 0.295-0.095 0.574-0.173 0.843-0.241 0.159-0.043 0.315-0.078 0.479-0.112l0.055-0.013c0.217-0.048 0.432-0.095 0.645-0.133l0.158-0.026c0.104-0.02 0.203-0.038 0.305-0.054 0.322-0.051 0.666-0.091 1.057-0.127 0.117-0.011 0.238-0.02 0.361-0.027 0.428-0.031 0.799-0.043 1.148-0.05h0.102c0.362 0.007 0.733 0.019 1.151 0.046 0.121 0.009 0.25 0.02 0.375 0.031 0.387 0.036 0.733 0.076 1.052 0.127 0.104 0.016 0.204 0.034 0.305 0.054l0.161 0.026c0.215 0.038 0.426 0.085 0.641 0.133l0.043 0.007c0.166 0.038 0.33 0.074 0.498 0.118 0.266 0.068 0.545 0.146 0.844 0.241 0.234 0.07 0.461 0.152 0.639 0.214 0.084 0.034 0.17 0.064 0.254 0.096l0.078 0.028c0.425 0.162 0.841 0.34 1.243 0.53l0.11 0.052c0.932 0.451 1.805 0.963 2.584 1.523l0.086 0.064-0.01 0.017c0.701 0.51 1.387 1.102 2.035 1.748l0.076 0.08-2.889 2.764-0.074-0.072c-0.547-0.541-1.145-1.038-1.77-1.475l-0.065-0.048c-0.07-0.051-0.138-0.093-0.204-0.139-0.274-0.177-0.551-0.344-0.82-0.501l-0.084-0.045c-0.037-0.02-0.068-0.041-0.1-0.061-0.711-0.378-1.465-0.698-2.239-0.945-0.049-0.016-0.214-0.059-0.214-0.059-0.318-0.099-0.641-0.182-0.968-0.254-0.097-0.017-0.188-0.04-0.282-0.057-0.299-0.057-0.625-0.107-0.988-0.151-0.04-0.004-0.074-0.008-0.109-0.016-0.049-0.004-0.094-0.01-0.146-0.013-0.439-0.045-0.85-0.062-1.256-0.062-0.404 0-0.812 0.017-1.257 0.062-0.05 0.003-0.101 0.013-0.145 0.013l-0.104 0.016c-0.365 0.044-0.692 0.095-0.99 0.151-0.095 0.017-0.188 0.04-0.281 0.057-0.33 0.072-0.655 0.155-0.97 0.254 0 0-0.179 0.046-0.212 0.06-0.781 0.246-1.531 0.566-2.24 0.946-0.038 0.02-0.072 0.039-0.102 0.061-0.029 0.014-0.054 0.031-0.084 0.043-0.289 0.166-0.566 0.333-0.818 0.501-0.096 0.058-0.182 0.122-0.273 0.187-3.536 2.459-5.652 6.492-5.652 10.785 0 4.3 2.116 8.333 5.652 10.795 0.102 0.065 0.185 0.123 0.273 0.184 0.252 0.165 0.525 0.33 0.818 0.495 0.03 0.019 0.055 0.032 0.087 0.05 0.032 0.022 0.061 0.036 0.099 0.062 0.709 0.377 1.459 0.694 2.24 0.941 0.041 0.016 0.09 0.024 0.133 0.04l0.076 0.021c0.317 0.096 0.643 0.178 0.973 0.251 0.094 0.022 0.187 0.039 0.281 0.061 0.303 0.054 0.628 0.106 0.992 0.147l0.1 0.015c0.047 0.005 0.098 0.015 0.147 0.018 0.448 0.044 0.86 0.065 1.257 0.065 0.398 0 0.808-0.021 1.256-0.065 0.053-0.003 0.098-0.013 0.146-0.018l0.109-0.015c0.355-0.041 0.684-0.094 0.988-0.147 0.094-0.021 0.186-0.038 0.282-0.061 0.327-0.073 0.649-0.155 0.968-0.251l0.025-0.008c0.061-0.016 0.123-0.034 0.188-0.053 0.774-0.247 1.528-0.564 2.239-0.941 0.026-0.023 0.06-0.04 0.096-0.059 0.026-0.018 0.059-0.035 0.088-0.054 0.274-0.154 0.55-0.319 0.82-0.495 0.062-0.041 0.12-0.089 0.188-0.128l0.082-0.056c0.625-0.441 1.226-0.937 1.77-1.477l0.074-0.074 2.889 2.761-0.076 0.074c-0.648 0.656-1.334 1.245-2.035 1.759l-0.076 0.076c-0.779 0.562-1.652 1.08-2.584 1.523-0.017 0.016-0.11 0.052-0.11 0.052-0.402 0.195-0.826 0.373-1.243 0.531l-0.036 0.012c-0.101 0.044-0.198 0.08-0.296 0.112-0.247 0.085-0.448 0.155-0.639 0.213-0.296 0.095-0.571 0.178-0.844 0.242-0.147 0.039-0.293 0.07-0.445 0.101l-0.09 0.026c-0.221 0.045-0.432 0.092-0.646 0.128l-0.139 0.029c-0.105 0.017-0.211 0.039-0.327 0.054-0.321 0.047-0.669 0.092-1.052 0.123-0.125 0.02-0.254 0.021-0.375 0.027-0.414 0.034-0.781 0.047-1.133 0.051h-0.131zm-60.443-4.4c7.023 0 12.74-5.713 12.74-12.738 0-7.021-5.717-12.738-12.74-12.738-0.031 0-5.064 0.004-7.801 0.004v25.47c2.737 0.01 7.77 0.01 7.801 0.01zm43.043-14.72c-0.961-6.371-6.518-11.159-12.972-11.159s-12.013 4.788-12.979 11.159h25.951z"/>
				<path d="m123.2 110.06c0.021 0 0.036 0.003 0.051 0.003 0.373 0 0.754 0.02 1.125 0.04 0.126 0.011 0.25 0.021 0.37 0.034 0.358 0.028 0.706 0.075 1.054 0.125 0.154 0.023 0.305 0.054 0.451 0.08 0.219 0.039 0.434 0.085 0.646 0.129 0.181 0.039 0.355 0.078 0.53 0.122 0.281 0.076 0.561 0.153 0.842 0.244 0.216 0.064 0.428 0.137 0.635 0.211 0.109 0.042 0.217 0.079 0.333 0.125 0.415 0.16 0.835 0.335 1.237 0.527 0.033 0.016 0.068 0.033 0.103 0.049 0.903 0.436 1.767 0.939 2.569 1.519l-0.007 0.016c0.753 0.543 1.452 1.147 2.104 1.806l-2.734 2.615c-0.548-0.549-1.146-1.049-1.782-1.491-0.092-0.063-0.181-0.123-0.271-0.183-0.27-0.183-0.544-0.346-0.83-0.504-0.061-0.034-0.119-0.072-0.186-0.108-0.713-0.384-1.471-0.704-2.256-0.956-0.07-0.018-0.139-0.039-0.211-0.061-0.32-0.097-0.652-0.179-0.98-0.252-0.096-0.02-0.188-0.036-0.281-0.059-0.33-0.062-0.664-0.111-1.002-0.151-0.082-0.011-0.166-0.028-0.252-0.03-0.42-0.041-0.838-0.062-1.268-0.062-0.427 0-0.85 0.021-1.27 0.062-0.082 0.002-0.166 0.02-0.251 0.03-0.335 0.04-0.67 0.09-0.997 0.151-0.098 0.022-0.189 0.039-0.285 0.059-0.33 0.073-0.66 0.155-0.98 0.252-0.068 0.021-0.143 0.043-0.211 0.061-0.785 0.252-1.537 0.572-2.256 0.956-0.066 0.036-0.119 0.074-0.187 0.108-0.282 0.158-0.558 0.321-0.827 0.504-0.094 0.06-0.179 0.119-0.273 0.183-3.438 2.396-5.695 6.372-5.695 10.878 0 4.505 2.258 8.484 5.695 10.882 0.095 0.058 0.18 0.12 0.273 0.18 0.27 0.181 0.545 0.347 0.827 0.505 0.067 0.032 0.12 0.071 0.187 0.104 0.719 0.388 1.471 0.704 2.256 0.953 0.068 0.022 0.143 0.042 0.211 0.066 0.32 0.095 0.65 0.177 0.98 0.253 0.096 0.021 0.188 0.034 0.285 0.057 0.327 0.061 0.662 0.112 0.997 0.154 0.085 0.009 0.169 0.024 0.251 0.027 0.42 0.045 0.843 0.065 1.27 0.065 0.43 0 0.848-0.021 1.268-0.065 0.086-0.003 0.17-0.019 0.252-0.027 0.338-0.042 0.672-0.094 1.002-0.154 0.094-0.022 0.186-0.036 0.281-0.057 0.328-0.076 0.66-0.158 0.98-0.253 0.072-0.024 0.141-0.044 0.211-0.066 0.785-0.249 1.543-0.565 2.256-0.953 0.066-0.033 0.125-0.072 0.186-0.104 0.286-0.158 0.561-0.324 0.83-0.505 0.091-0.06 0.18-0.122 0.271-0.18 0.637-0.447 1.234-0.944 1.782-1.491l2.734 2.612c-0.651 0.659-1.351 1.267-2.104 1.806l0.007 0.019c-0.803 0.577-1.666 1.079-2.569 1.514-0.034 0.019-0.069 0.032-0.103 0.054-0.402 0.189-0.822 0.365-1.237 0.523-0.116 0.044-0.224 0.081-0.333 0.123-0.207 0.076-0.419 0.146-0.635 0.213-0.281 0.09-0.561 0.166-0.842 0.237-0.175 0.05-0.35 0.089-0.53 0.128-0.212 0.047-0.427 0.092-0.646 0.129-0.146 0.028-0.297 0.059-0.451 0.082-0.348 0.053-0.695 0.095-1.054 0.121-0.12 0.016-0.244 0.022-0.37 0.032-0.371 0.026-0.752 0.044-1.125 0.044h-0.122c-0.384 0-0.754-0.018-1.128-0.044-0.122-0.01-0.249-0.017-0.374-0.032-0.354-0.026-0.705-0.068-1.045-0.121-0.156-0.023-0.309-0.054-0.459-0.082-0.217-0.037-0.429-0.082-0.641-0.129-0.178-0.039-0.359-0.078-0.534-0.128-0.282-0.071-0.563-0.147-0.841-0.237-0.213-0.066-0.423-0.137-0.633-0.213-0.113-0.042-0.221-0.079-0.33-0.123-0.42-0.158-0.834-0.334-1.24-0.523-0.037-0.021-0.068-0.035-0.104-0.054-0.903-0.435-1.768-0.937-2.569-1.514l0.01-0.019c-3.807-2.747-6.424-7.029-6.964-11.938h-26.624c0.914 6.432 6.422 11.376 13.103 11.376 2.964 0 5.691-0.989 7.899-2.639v-0.021c0.494-0.364 0.97-0.768 1.406-1.196l2.734 2.612c-3.088 3.702-8.77 5.024-12.04 5.024-6.741 0-12.565-3.912-15.325-9.589-2.725 5.384-8.299 9.076-14.746 9.076-0.049 0-11.602-0.005-11.65-0.005v-33.018c0.049 0 11.602-0.008 11.65-0.008 6.447 0 12.021 3.695 14.746 9.08 2.76-5.68 8.584-9.596 15.325-9.596 6.653 0 12.417 3.822 15.216 9.381 1.24-2.445 3.045-4.562 5.254-6.157l-0.01-0.016c0.802-0.579 1.666-1.083 2.569-1.519 0.036-0.016 0.067-0.033 0.104-0.049 0.406-0.192 0.82-0.367 1.24-0.527 0.109-0.046 0.217-0.083 0.33-0.125 0.21-0.074 0.42-0.146 0.633-0.211 0.277-0.091 0.559-0.168 0.841-0.244 0.175-0.044 0.356-0.083 0.534-0.122 0.212-0.044 0.424-0.09 0.641-0.129 0.15-0.026 0.303-0.057 0.459-0.08 0.34-0.05 0.691-0.097 1.045-0.125 0.125-0.013 0.252-0.023 0.374-0.034 0.374-0.021 0.744-0.04 1.128-0.04 0.015 0 0.027-0.003 0.044-0.003h0.043zm-43.534 15.16h26.205c-0.914-6.428-6.428-11.375-13.103-11.375-6.679 0-12.187 4.95-13.101 11.38zm-16.969 14.72c7.091 0 12.844-5.754 12.844-12.848 0-7.095-5.753-12.844-12.844-12.844-0.031 0-5.197 0-7.905 0.004v25.678c2.708 0.01 7.874 0.01 7.905 0.01zm60.503-30.09h-0.071c-0.35 0.002-0.725 0.017-1.145 0.042l-0.012 0.005c-0.122 0.008-0.244 0.018-0.362 0.029-0.396 0.036-0.739 0.076-1.063 0.124-0.102 0.021-0.206 0.038-0.308 0.055-0.054 0.01-0.103 0.022-0.153 0.026-0.24 0.047-0.451 0.092-0.648 0.134l-0.062 0.013c-0.159 0.035-0.32 0.071-0.48 0.111-0.269 0.074-0.553 0.149-0.852 0.248-0.238 0.07-0.463 0.15-0.638 0.214-0.113 0.042-0.224 0.081-0.339 0.126-0.432 0.164-0.856 0.344-1.254 0.534l-0.029 0.013c-0.027 0.013-0.057 0.026-0.079 0.038-0.937 0.45-1.812 0.969-2.601 1.536l-0.161 0.114 0.009 0.017c-2.05 1.52-3.758 3.498-4.965 5.755-1.416-2.65-3.497-4.893-6.051-6.498-2.738-1.724-5.91-2.636-9.165-2.636-3.302 0-6.509 0.932-9.269 2.697-2.577 1.646-4.666 3.937-6.059 6.642-1.376-2.56-3.396-4.724-5.859-6.274-2.662-1.666-5.731-2.55-8.885-2.55-0.114 0-11.604 0.004-11.656 0.004l-0.209 0.007v33.444l0.211 0.001c0.051 0 11.54 0.003 11.654 0.003 3.153 0 6.223-0.884 8.885-2.552 2.463-1.553 4.483-3.713 5.859-6.273 1.393 2.706 3.481 4.997 6.059 6.636 2.76 1.774 5.967 2.703 9.269 2.703 2.747 0 8.831-1.059 12.205-5.101l0.127-0.15-0.144-0.137-2.736-2.622-0.152-0.143-0.145 0.148c-0.389 0.387-0.841 0.775-1.385 1.176l-0.082 0.066v0.021c-2.256 1.661-4.91 2.534-7.688 2.534-3.163 0-6.202-1.147-8.575-3.229-2.283-2-3.799-4.736-4.277-7.719h26.168c0.568 4.686 3.057 8.958 6.865 11.779l-0.009 0.012 0.161 0.115c0.789 0.57 1.664 1.09 2.604 1.543 0.02 0.007 0.042 0.019 0.072 0.031l0.033 0.016c0.402 0.191 0.824 0.374 1.254 0.537 0.115 0.037 0.226 0.078 0.339 0.122 0.243 0.091 0.448 0.157 0.638 0.219 0.295 0.092 0.576 0.173 0.852 0.237 0.145 0.039 0.285 0.072 0.427 0.102l0.116 0.027c0.213 0.045 0.428 0.094 0.643 0.127l0.135 0.028c0.108 0.021 0.218 0.04 0.328 0.058 0.328 0.045 0.677 0.095 1.067 0.129 0.118 0.007 0.24 0.017 0.364 0.026l0.01 0.005c0.416 0.025 0.789 0.037 1.139 0.041h0.127c0.352-0.004 0.725-0.016 1.14-0.041 0.128-0.015 0.254-0.024 0.382-0.031 0.381-0.034 0.73-0.084 1.062-0.129 0.104-0.018 0.214-0.037 0.317-0.058l0.146-0.028c0.204-0.033 0.413-0.074 0.642-0.127l0.102-0.021c0.148-0.03 0.291-0.068 0.44-0.107 0.279-0.064 0.558-0.146 0.856-0.241 0.188-0.058 0.389-0.124 0.637-0.215 0.102-0.034 0.197-0.07 0.299-0.112l0.033-0.01c0.425-0.159 0.844-0.342 1.26-0.537 0.018-0.008 0.034-0.016 0.048-0.022 0.021-0.009 0.038-0.021 0.062-0.026 0.936-0.451 1.811-0.971 2.597-1.541l0.173-0.123-0.01-0.012c0.674-0.5 1.334-1.074 1.963-1.707l0.152-0.149-0.16-0.148-2.732-2.622-0.153-0.143-0.144 0.148c-0.542 0.537-1.133 1.029-1.757 1.464l-0.088 0.057c-0.058 0.044-0.116 0.085-0.182 0.126-0.263 0.177-0.538 0.342-0.814 0.497-0.028 0.018-0.058 0.032-0.088 0.048-0.035 0.018-0.063 0.04-0.095 0.053-0.7 0.381-1.451 0.695-2.218 0.94-0.06 0.022-0.124 0.037-0.188 0.057l-0.019 0.003c-0.319 0.098-0.642 0.18-0.966 0.252-0.092 0.014-0.188 0.034-0.278 0.057-0.302 0.057-0.626 0.106-0.985 0.152-0.029 0.002-0.07 0.004-0.105 0.011-0.049 0.004-0.092 0.01-0.145 0.016-0.443 0.047-0.852 0.065-1.244 0.065s-0.803-0.019-1.244-0.065c-0.051-0.006-0.101-0.012-0.149-0.016-0.032-0.007-0.068-0.009-0.103-0.011-0.359-0.046-0.678-0.096-0.983-0.152-0.091-0.022-0.184-0.043-0.275-0.057-0.33-0.072-0.65-0.154-0.964-0.252l-0.074-0.022c-0.047-0.008-0.096-0.021-0.137-0.037-0.768-0.245-1.52-0.56-2.218-0.94-0.036-0.016-0.069-0.035-0.097-0.053-0.031-0.016-0.057-0.03-0.088-0.048-0.288-0.166-0.564-0.332-0.814-0.497-0.086-0.057-0.172-0.114-0.25-0.173l-0.02-0.01c-3.512-2.444-5.605-6.442-5.605-10.702s2.094-8.258 5.605-10.703c0.093-0.059 0.178-0.12 0.27-0.183 0.252-0.165 0.526-0.332 0.816-0.492 0.029-0.017 0.053-0.03 0.08-0.048 0.033-0.021 0.066-0.041 0.103-0.059 0.698-0.379 1.45-0.693 2.218-0.939 0.034-0.01 0.078-0.022 0.117-0.033l0.094-0.028c0.313-0.095 0.634-0.179 0.961-0.246 0.095-0.021 0.188-0.039 0.278-0.058 0.3-0.055 0.624-0.107 0.983-0.152 0.034-0.004 0.07-0.008 0.106-0.01 0.045-0.007 0.095-0.015 0.146-0.018 0.436-0.043 0.844-0.062 1.244-0.062 0.406 0 0.808 0.02 1.244 0.062 0.053 0.003 0.096 0.011 0.145 0.018 0.035 0.002 0.076 0.006 0.105 0.01 0.363 0.045 0.688 0.098 0.985 0.152 0.095 0.019 0.187 0.037 0.278 0.058 0.324 0.067 0.646 0.151 0.966 0.246l0.06 0.017c0.047 0.019 0.1 0.033 0.147 0.049 0.771 0.242 1.518 0.557 2.224 0.936 0.028 0.015 0.064 0.037 0.091 0.056 0.032 0.017 0.058 0.03 0.086 0.051 0.276 0.149 0.552 0.317 0.814 0.492 0.071 0.047 0.136 0.092 0.201 0.139l0.068 0.044c0.624 0.434 1.215 0.927 1.757 1.466l0.144 0.145 0.153-0.142 2.732-2.618 0.16-0.149-0.152-0.152c-0.629-0.632-1.289-1.201-1.963-1.702l0.01-0.015-0.173-0.125c-0.786-0.567-1.661-1.085-2.601-1.538-0.02-0.009-0.037-0.021-0.058-0.024l-0.048-0.024c-0.406-0.192-0.835-0.375-1.254-0.534l-0.075-0.028c-0.09-0.034-0.176-0.064-0.265-0.098-0.174-0.063-0.4-0.144-0.639-0.214-0.304-0.099-0.58-0.174-0.853-0.248-0.168-0.04-0.334-0.078-0.497-0.112l-0.045-0.012c-0.209-0.045-0.425-0.089-0.642-0.134-0.058-0.007-0.108-0.017-0.166-0.026-0.099-0.017-0.198-0.035-0.297-0.055-0.325-0.048-0.673-0.088-1.062-0.124-0.128-0.012-0.254-0.021-0.378-0.029-0.425-0.03-0.798-0.045-1.144-0.047h-0.135zm-43.284 15.16c0.479-2.989 1.994-5.718 4.277-7.723 2.373-2.081 5.412-3.222 8.575-3.222 3.153 0 6.203 1.141 8.569 3.222 2.289 2.005 3.801 4.733 4.282 7.723h-25.704zm-24.913-10.55c2.763-0.001 7.663-0.006 7.694-0.006 6.962 0 12.633 5.67 12.633 12.635s-5.671 12.631-12.633 12.631c-0.031 0-4.932-0.004-7.694-0.007v-25.24z"/>
				<path d="m91.228 46.237c0 6.197-5.024 11.224-11.223 11.224-6.195 0-11.224-5.026-11.224-11.224s5.028-11.223 11.224-11.223c6.198 0.001 11.223 5.026 11.223 11.223" fill="#fff"/>
				<path d="m115.43 46.237c0 6.197-5.031 11.224-11.229 11.224-6.195 0-11.219-5.026-11.219-11.224s5.023-11.223 11.219-11.223c6.2 0.001 11.23 5.026 11.23 11.223" fill="#fff"/>
				<rect y="22.099" x="90.701" height="80.071" width="1.332" fill="#fff"/>
				<path d="m143.93 113.64c0 0.774-0.277 1.44-0.826 1.982-0.549 0.554-1.211 0.827-1.984 0.827-0.771 0-1.434-0.273-1.986-0.827-0.545-0.542-0.82-1.208-0.82-1.982 0-0.772 0.275-1.433 0.82-1.985 0.553-0.545 1.215-0.818 1.986-0.818 0.773 0 1.436 0.273 1.984 0.818 0.56 0.55 0.83 1.21 0.83 1.98m-0.62 0c0-0.601-0.217-1.119-0.639-1.552-0.43-0.434-0.945-0.654-1.551-0.654-0.602 0-1.119 0.221-1.545 0.654-0.43 0.433-0.64 0.951-0.64 1.552 0 0.608 0.21 1.121 0.64 1.557 0.426 0.433 0.943 0.646 1.545 0.646 0.605 0 1.121-0.214 1.551-0.646 0.43-0.44 0.64-0.95 0.64-1.56zm-0.67 1.33h-0.85l-0.814-1.027h-0.264v1.027h-0.664v-2.795h1.021c0.186 0 0.336 0.006 0.453 0.024s0.227 0.051 0.34 0.113c0.125 0.075 0.219 0.16 0.273 0.264 0.057 0.1 0.082 0.227 0.082 0.379 0 0.209-0.055 0.377-0.162 0.507-0.113 0.128-0.258 0.23-0.432 0.302l1.01 1.21zm-1.15-1.96c0-0.059-0.012-0.111-0.035-0.16-0.024-0.049-0.066-0.088-0.119-0.119-0.051-0.027-0.111-0.048-0.172-0.055-0.06-0.009-0.141-0.009-0.238-0.009h-0.207v0.784h0.158c0.098 0 0.189-0.01 0.274-0.025 0.089-0.014 0.149-0.041 0.2-0.081 0.044-0.034 0.082-0.077 0.104-0.136 0.03-0.04 0.04-0.11 0.04-0.19z"/>
				<path d="m54.359 155.61h1.049c-0.379 0.946-1.049 1.42-2.004 1.42-0.631 0-1.152-0.211-1.559-0.615-0.398-0.412-0.605-0.937-0.605-1.57 0-0.611 0.209-1.128 0.613-1.552 0.413-0.429 0.92-0.639 1.531-0.639 0.47 0 0.881 0.122 1.232 0.363 0.355 0.249 0.611 0.588 0.766 1.027 0.103 0.277 0.156 0.648 0.156 1.128h-3.296c0.113 0.649 0.505 0.979 1.167 0.979 0.256 0 0.444-0.027 0.574-0.083 0.171-0.1 0.296-0.25 0.376-0.47m0.155-1.19c-0.125-0.581-0.504-0.879-1.109-0.879-0.602 0-0.973 0.298-1.135 0.879h2.244z"/>
				<path d="m66.275 156.91h-1.037v-0.453c-0.312 0.377-0.74 0.57-1.287 0.57-0.6 0-1.096-0.214-1.479-0.637-0.383-0.416-0.572-0.934-0.572-1.554 0-0.604 0.184-1.118 0.564-1.541 0.385-0.422 0.873-0.633 1.475-0.633 0.514 0 0.947 0.183 1.299 0.54v-2.428h1.037v6.13zm-1.011-2.05c0-0.357-0.109-0.659-0.322-0.902-0.219-0.239-0.502-0.364-0.85-0.364-0.344 0-0.628 0.125-0.854 0.364-0.223 0.243-0.334 0.536-0.334 0.883 0 0.344 0.111 0.638 0.332 0.884 0.217 0.246 0.501 0.37 0.842 0.37 0.34 0 0.617-0.119 0.844-0.366 0.23-0.23 0.342-0.53 0.342-0.86z"/>
				<path d="m76.676 156.91h-0.988v-0.46c-0.244 0.38-0.596 0.575-1.055 0.575-0.514 0-0.914-0.167-1.201-0.501-0.27-0.307-0.406-0.72-0.406-1.249v-2.496h1.035v2.265c0 0.689 0.253 1.036 0.758 1.036 0.549 0 0.822-0.393 0.822-1.179v-2.122h1.035v4.13z"/>
				<path d="m87.498 155.42c-0.121 0.506-0.369 0.9-0.742 1.185-0.371 0.286-0.82 0.428-1.346 0.428-0.635 0-1.151-0.208-1.562-0.618-0.406-0.409-0.611-0.935-0.611-1.564 0-0.646 0.201-1.17 0.602-1.577 0.396-0.404 0.922-0.611 1.564-0.611 0.541 0 0.996 0.134 1.354 0.398 0.378 0.279 0.621 0.684 0.735 1.203h-1.038c-0.206-0.443-0.568-0.672-1.08-0.672-0.356 0-0.635 0.124-0.83 0.361-0.197 0.234-0.296 0.534-0.296 0.897 0 0.347 0.104 0.645 0.322 0.885 0.217 0.245 0.497 0.366 0.841 0.366 0.533 0 0.88-0.224 1.043-0.681h1.044z"/>
				<path d="m98.232 156.91h-1.012v-0.489c-0.314 0.4-0.742 0.606-1.294 0.606-0.608 0-1.104-0.214-1.493-0.637-0.389-0.418-0.579-0.934-0.579-1.554 0-0.612 0.19-1.124 0.571-1.542 0.386-0.424 0.877-0.634 1.484-0.634 0.557 0 0.99 0.189 1.281 0.564v-0.446h1.041v4.13zm-1.011-2.05c0-0.348-0.109-0.646-0.34-0.895-0.228-0.247-0.516-0.376-0.863-0.376-0.335 0-0.615 0.129-0.832 0.374-0.217 0.239-0.328 0.535-0.328 0.873s0.115 0.63 0.34 0.884c0.225 0.249 0.502 0.379 0.838 0.379 0.324 0 0.602-0.127 0.84-0.379 0.233-0.22 0.345-0.51 0.345-0.84z"/>
				<polygon points="106.72 153.59 106.13 153.59 106.13 156.91 105.09 156.91 105.09 153.59 104.65 153.59 104.65 152.78 105.09 152.78 105.09 151.43 106.13 151.43 106.13 152.78 106.72 152.78"/>
				<path d="m114.19 156.91h-1.039v-4.13h1.039v4.13zm-0.04-4.96h-0.98v-1.012h0.98v1.01z"/>
				<path d="m125.18 154.82c0 0.648-0.21 1.177-0.628 1.588-0.414 0.403-0.949 0.615-1.598 0.615-0.647 0-1.178-0.212-1.596-0.62-0.42-0.415-0.627-0.938-0.627-1.583 0-0.63 0.215-1.143 0.643-1.554 0.425-0.412 0.953-0.612 1.58-0.612 0.641 0 1.164 0.2 1.588 0.612 0.44 0.41 0.65 0.92 0.65 1.55m-3.39 0.03c0 0.357 0.104 0.647 0.314 0.878 0.213 0.234 0.496 0.351 0.848 0.351 0.357 0 0.641-0.116 0.85-0.351 0.211-0.23 0.314-0.521 0.314-0.878 0-0.37-0.102-0.667-0.311-0.895-0.205-0.233-0.49-0.351-0.854-0.351-0.352 0-0.635 0.117-0.848 0.353-0.21 0.23-0.31 0.53-0.31 0.89z"/>
				<path d="m135.41 156.91h-1.04v-2.305c0-0.653-0.255-0.987-0.774-0.987-0.555 0-0.836 0.393-0.836 1.181v2.111h-1.033v-4.131h0.995v0.469c0.254-0.374 0.628-0.561 1.114-0.561 0.521 0 0.906 0.146 1.172 0.436 0.266 0.296 0.402 0.701 0.402 1.222v2.57z"/>
				<path d="m91.521 101.44s34.76-2.705 34.76-63.176c-15.236 0-20.738 4.383-34.746 21.576-5.992-6.318-9.293-22.396-34.453-22.396 0.001 19.284 1.255 50.469 34.44 63.996" fill="#F5AC00"/>
				<path d="m91.521 101.44s34.76-2.705 34.76-63.176c-18.514-2.272-25.041 14.166-34.746 20.352 0.001 18.557-0.013 29.61-0.013 42.824" fill="#E05A0F"/>
				<path d="m109.55 30.346c-12.496-1.805-17.791 4.727-17.791 4.727v-12.068h16.514s1.31 6.035 1.28 7.341" fill="#E5500E"/>
				<path d="m73.814 30.473c12.233-2.125 18.113 4.827 18.113 4.827v-12.295h-16.513s-2.594 5.838-1.6 7.468" fill="#F5AC00"/>
				<path d="m90.876 46.009c0 6.201-5.032 11.23-11.233 11.23-6.203 0-11.235-5.029-11.235-11.23 0-6.205 5.032-11.232 11.235-11.232 6.201-0.001 11.233 5.027 11.233 11.232" fill="#fff"/>
				<path d="m115.1 46.009c0 6.201-5.028 11.23-11.232 11.23s-11.233-5.029-11.233-11.23c0-6.205 5.029-11.232 11.233-11.232s11.23 5.027 11.23 11.232" fill="#fff"/>
				<path d="m103.87 40.18c-0.548 0-1.074 0.081-1.576 0.228 1.086 0.301 1.891 1.289 1.891 2.473 0 1.423-1.156 2.58-2.579 2.58-1.425 0-2.579-1.157-2.579-2.58 0-0.002 0.002-0.005 0.002-0.006-0.549 0.876-0.87 1.909-0.87 3.016 0 3.156 2.558 5.715 5.712 5.715s5.709-2.559 5.709-5.715c0.01-3.154-2.55-5.711-5.7-5.711" fill="#2B2724"/>
				<path d="m79.834 40.18c-0.547 0-1.076 0.081-1.577 0.228 1.086 0.301 1.89 1.289 1.89 2.473 0 1.423-1.153 2.58-2.578 2.58-1.426 0-2.576-1.157-2.576-2.58v-0.006c-0.547 0.876-0.871 1.909-0.871 3.016 0 3.156 2.559 5.715 5.713 5.715 3.152 0 5.709-2.559 5.709-5.715-0.001-3.154-2.558-5.711-5.71-5.711" fill="#2B2724"/>
				<path d="m91.846 21.846h-36.686v3.655h18.374c-0.543 2.477-1.148 5.214-2.069 8.632 4.54-4.441 15.646-4.312 20.381 3.513v-15.8zm-0.383 11.499c-4.643-4.973-13.043-5.094-16.055-3.727 0.377-1.281 0.709-2.846 1.033-3.999h15.021v7.726z" fill="#13120D"/>
				<path d="m131.34 37.175v6.533h4.256s-0.02-6.533-0.008-6.533c0-1.007-0.705-1.848-1.646-2.065v-13.264h-42.093v15.571c4.902-7.597 16.004-7.726 20.545-3.284-0.92-3.418-1.525-6.155-2.067-8.632h22.666v9.605c-0.95 0.218-1.65 1.06-1.65 2.069m-38.949-3.83v-7.726h15.023c0.322 1.153 0.652 2.718 1.032 3.999-3-1.367-11.405-1.246-16.049 3.727z" fill="#13120D"/>
				<path d="m91.693 58.183l-2.875-2.92c2.463-2.363 4.007-5.684 4.007-9.373 0-7.173-5.817-12.99-12.991-12.99-3.203 0-6.133 1.165-8.401 3.089h-16.419c0 16.467 1.773 52.67 36.669 67.429 0-4.604 0.01-45.237 0.01-45.237m-1.572-12.293c0 5.687-4.605 10.291-10.287 10.291-5.684 0-10.291-4.604-10.291-10.291 0-5.681 4.607-10.286 10.291-10.286 5.682 0 10.287 4.605 10.287 10.286zm1.197 54.68c-7.086-3.308-12.729-7.698-17.195-12.811 3.996-6.106 4.111-16.9 3.408-21.298 0.059 3.726-1.555 15.009-5.916 18.178-9.629-12.94-12.708-29.646-12.708-45.16h9.638c-1.081 1.895-1.704 4.082-1.704 6.414 0 7.178 5.815 12.995 12.993 12.995 2.648 0 5.111-0.798 7.164-2.159l4.32 4.374v39.467z" fill="#13120D"/>
				<path d="m112.27 35.988c-2.268-1.924-5.196-3.089-8.4-3.089-5.436 0-10.084 3.343-12.023 8.08v9.818c0.668 1.634 1.652 3.104 2.882 4.323l-3.034 3.062s-0.011 40-0.011 45.234c34.889-14.759 36.663-50.962 36.663-67.429h-16.08zm-18.69 9.905c0-5.684 4.605-10.289 10.289-10.289 5.682 0 10.287 4.605 10.287 10.289s-4.605 10.288-10.287 10.288c-5.684 0-10.29-4.605-10.29-10.288zm12.3 20.565c-0.703 4.391-0.586 15.156 3.39 21.267-4.466 5.13-10.122 9.529-17.223 12.842v-39.424l4.479-4.541c2.091 1.438 4.621 2.28 7.349 2.28 7.176 0 12.992-5.817 12.992-12.992 0-2.337-0.624-4.522-1.703-6.417h9.293c0 15.504-3.076 32.203-12.691 45.141-4.35-3.2-5.95-14.441-5.89-18.159z" fill="#13120D"/>
	</g>
</switch>
</svg>
