<?xml version="1.0" encoding="UTF-8" standalone="no"?>
<!-- Generator: Adobe Illustrator 16.0.0, SVG Export Plug-In . SVG Version: 6.00 Build 0)  -->
<!DOCTYPE svg  PUBLIC '-//W3C//DTD SVG 1.1//EN'  'http://www.w3.org/Graphics/SVG/1.1/DTD/svg11.dtd'>
<svg xmlns="http://www.w3.org/2000/svg" enable-background="new 0 0 271.502 103.463" xml:space="preserve" height="103.46px" width="271.5px" version="1.1" y="0px" x="0px" xmlns:xlink="http://www.w3.org/1999/xlink" viewBox="0 0 271.502 103.463">
  <switch>
    <g>
      <g fill="#7ac3fa">
        <path d="m240.24 80.518c-0.688-0.002-1.378-0.033-2.066-0.08-0.271-0.016-0.488-0.034-0.699-0.057-0.645-0.055-1.293-0.127-1.936-0.229-0.183-0.027-0.373-0.059-0.561-0.098l-0.279-0.05c-0.394-0.07-0.791-0.152-1.178-0.237 0 0-0.751-0.172-0.985-0.228-0.527-0.14-1.048-0.287-1.563-0.451-0.39-0.118-0.785-0.258-1.166-0.395-0.197-0.068-0.406-0.144-0.608-0.231-0.759-0.279-1.528-0.604-2.285-0.966l-0.218-0.104c-1.693-0.815-3.29-1.757-4.729-2.796l-0.515-0.371 0.022-0.031c-6.774-5.106-11.223-12.75-12.283-21.137h-46.987c1.921 11.113 11.708 19.414 23.042 19.414 4.955 0 9.697-1.556 13.738-4.495l0.223-0.202c0.953-0.717 1.767-1.409 2.48-2.122l0.417-0.41 5.774 5.53-0.357 0.429c-6.169 7.376-17.269 9.327-22.275 9.327-11.76 0-22.297-6.364-27.779-16.689-5.392 9.745-15.522 15.75-26.708 15.75l-21.709-0.006v-61.037l21.709-0.008c11.187 0 21.32 6.005 26.708 15.751 5.482-10.324 16.019-16.684 27.779-16.684 11.575 0 22.034 6.221 27.577 16.316 2.144-3.887 5.101-7.306 8.629-9.971l-0.004-0.007 0.52-0.412c1.444-1.043 3.045-1.987 4.748-2.809l0.197-0.091c0.721-0.345 1.491-0.675 2.29-0.975 0.2-0.076 0.406-0.15 0.614-0.226 0.374-0.14 0.769-0.272 1.166-0.396 0.512-0.159 1.028-0.312 1.554-0.447 0.324-0.079 0.647-0.153 0.968-0.221 0.406-0.091 0.803-0.171 1.197-0.242l0.176-0.034c0.22-0.039 0.443-0.081 0.664-0.117 0.643-0.103 1.291-0.174 1.944-0.231l0.686-0.056c0.689-0.046 1.381-0.08 2.078-0.083h0.121c0.809 0.003 1.501 0.037 2.188 0.083l0.685 0.056c0.657 0.058 1.3 0.129 1.943 0.231 0.229 0.036 0.448 0.078 0.677 0.121l0.168 0.03c0.396 0.071 0.786 0.151 1.18 0.237 0.336 0.072 0.665 0.146 0.985 0.226 0.525 0.135 1.043 0.288 1.558 0.447 0.39 0.12 0.781 0.256 1.166 0.396l0.609 0.226c0.782 0.295 1.555 0.62 2.294 0.974l0.146 0.07c1.759 0.85 3.358 1.791 4.792 2.83l0.512 0.367-0.025 0.032c1.172 0.882 2.309 1.874 3.381 2.958l0.43 0.428-5.809 5.568-0.413-0.409c-0.985-0.979-2.045-1.862-3.154-2.628l-0.481-0.337c-0.477-0.312-0.958-0.602-1.46-0.881l-0.342-0.199c-1.258-0.675-2.601-1.241-3.979-1.68l-0.378-0.109c-0.561-0.167-1.139-0.316-1.723-0.443-0.164-0.036-0.332-0.069-0.495-0.101-0.585-0.115-1.177-0.202-1.772-0.274l-0.452-0.055c-0.784-0.075-1.516-0.11-2.239-0.11-0.714 0-1.44 0.035-2.238 0.111l-0.447 0.054c-0.591 0.072-1.181 0.159-1.759 0.274-0.167 0.031-0.336 0.064-0.497 0.1-0.594 0.128-1.167 0.277-1.74 0.444l-0.384 0.111c-1.361 0.435-2.704 1.002-3.975 1.687l-0.322 0.185c-0.502 0.283-0.99 0.575-1.467 0.887-0.171 0.113-0.323 0.222-0.48 0.333-6.304 4.382-10.071 11.569-10.071 19.223 0 7.652 3.768 14.834 10.067 19.218 0.185 0.124 0.332 0.229 0.476 0.32 0.48 0.316 0.974 0.614 1.469 0.899l0.325 0.18c1.268 0.685 2.606 1.249 3.993 1.689l0.367 0.109c0.575 0.173 1.148 0.318 1.738 0.444l0.505 0.105c0.573 0.118 1.158 0.201 1.754 0.271l0.447 0.052c0.784 0.077 1.518 0.116 2.238 0.116 0.734 0 1.467-0.039 2.244-0.116l0.457-0.052c0.586-0.069 1.178-0.152 1.757-0.272l0.501-0.104c0.584-0.126 1.156-0.271 1.721-0.444l0.393-0.115c1.378-0.435 2.717-1.001 3.977-1.684l0.325-0.18c0.509-0.285 0.99-0.584 1.475-0.893l0.488-0.336c1.095-0.764 2.157-1.648 3.14-2.624l0.413-0.41 5.809 5.563-0.43 0.437c-1.081 1.09-2.226 2.087-3.401 2.976v0.006l-0.468 0.373c-1.426 1.032-3.021 1.979-4.742 2.81l-0.2 0.09c-0.791 0.373-1.542 0.687-2.293 0.974-0.197 0.08-0.403 0.155-0.609 0.229-0.382 0.135-0.773 0.271-1.163 0.39-0.512 0.164-1.033 0.312-1.558 0.447-0.232 0.06-0.98 0.229-0.98 0.229-0.399 0.087-0.789 0.169-1.192 0.239l-0.25 0.046c-0.197 0.04-0.393 0.074-0.594 0.102-0.635 0.103-1.282 0.175-1.929 0.229-0.22 0.022-0.454 0.043-0.68 0.057-0.699 0.047-1.393 0.078-2.086 0.08l-0.091 0.011-0.19-0.009zm-109.48-8.769c12.506 0 22.679-10.178 22.679-22.682 0-12.512-10.173-22.682-22.679-22.682-0.052 0-8.696 0.002-13.728 0.009v45.339c5.03 0.009 13.68 0.016 13.73 0.016zm77.53-26.678c-1.922-11.114-11.708-19.415-23.04-19.415-11.334 0-21.121 8.301-23.042 19.415h46.08z"/>
        <path d="m240.48 18.2c0.688 0.009 1.366 0.037 2.042 0.086 0.228 0.013 0.455 0.031 0.673 0.05 0.642 0.059 1.275 0.134 1.898 0.231 0.285 0.045 0.555 0.096 0.827 0.15 0.392 0.069 0.781 0.147 1.168 0.229 0.321 0.071 0.643 0.142 0.963 0.223 0.512 0.135 1.028 0.284 1.524 0.439 0.388 0.12 0.771 0.252 1.146 0.386 0.202 0.073 0.405 0.146 0.599 0.221 0.767 0.292 1.516 0.609 2.251 0.959 0.064 0.031 0.124 0.061 0.191 0.092 1.629 0.783 3.198 1.697 4.653 2.751l-0.019 0.024c1.365 0.983 2.635 2.081 3.812 3.268l-4.95 4.741c-0.997-0.989-2.076-1.895-3.227-2.691-0.172-0.118-0.331-0.232-0.496-0.339-0.486-0.323-0.988-0.629-1.501-0.913-0.114-0.065-0.223-0.128-0.337-0.196-1.298-0.694-2.665-1.274-4.089-1.727-0.127-0.04-0.254-0.075-0.389-0.115-0.583-0.172-1.173-0.325-1.77-0.456-0.171-0.034-0.338-0.069-0.511-0.102-0.595-0.116-1.201-0.207-1.814-0.277-0.148-0.021-0.303-0.041-0.454-0.061-0.764-0.069-1.527-0.112-2.303-0.112s-1.534 0.043-2.294 0.112c-0.157 0.02-0.309 0.04-0.462 0.061-0.611 0.07-1.216 0.161-1.81 0.277-0.167 0.032-0.342 0.067-0.508 0.102-0.603 0.131-1.195 0.284-1.776 0.456-0.129 0.04-0.256 0.075-0.387 0.115-1.425 0.452-2.787 1.032-4.088 1.727-0.115 0.068-0.225 0.131-0.338 0.196-0.509 0.284-1.011 0.59-1.5 0.913-0.169 0.106-0.329 0.221-0.493 0.339-6.232 4.332-10.32 11.534-10.32 19.709 0 8.161 4.088 15.375 10.32 19.707 0.164 0.113 0.323 0.226 0.493 0.334 0.489 0.322 0.991 0.626 1.5 0.916 0.113 0.062 0.223 0.127 0.338 0.19 1.301 0.699 2.664 1.277 4.088 1.729 0.131 0.036 0.258 0.075 0.387 0.113 0.582 0.177 1.174 0.322 1.776 0.454 0.166 0.037 0.341 0.07 0.508 0.109 0.594 0.114 1.199 0.206 1.81 0.274 0.154 0.016 0.305 0.04 0.462 0.056 0.76 0.077 1.518 0.117 2.294 0.117s1.539-0.04 2.303-0.117c0.151-0.016 0.306-0.04 0.454-0.056 0.613-0.068 1.219-0.16 1.814-0.274 0.173-0.039 0.34-0.072 0.511-0.109 0.596-0.132 1.186-0.277 1.77-0.454 0.135-0.038 0.262-0.077 0.389-0.113 1.424-0.452 2.791-1.03 4.089-1.729 0.114-0.063 0.223-0.129 0.337-0.19 0.513-0.29 1.015-0.594 1.501-0.916 0.165-0.108 0.323-0.221 0.496-0.334 1.151-0.803 2.23-1.707 3.227-2.699l4.95 4.743c-1.178 1.188-2.447 2.286-3.812 3.266l0.019 0.028c-1.455 1.055-3.024 1.964-4.653 2.753-0.067 0.029-0.127 0.062-0.191 0.095-0.736 0.344-1.484 0.661-2.251 0.948-0.194 0.079-0.397 0.153-0.599 0.224-0.375 0.133-0.758 0.27-1.146 0.386-0.497 0.157-1.012 0.307-1.524 0.44-0.32 0.08-0.642 0.147-0.963 0.224-0.387 0.086-0.776 0.163-1.168 0.234-0.272 0.047-0.542 0.104-0.827 0.144-0.623 0.103-1.256 0.174-1.898 0.228-0.219 0.024-0.446 0.041-0.673 0.06-0.675 0.043-1.354 0.073-2.042 0.075-0.034 0-0.059 0.006-0.088 0.006h-0.05c-0.026 0-0.056-0.006-0.087-0.006-0.681-0.002-1.361-0.032-2.038-0.075-0.222-0.019-0.451-0.035-0.675-0.06-0.635-0.054-1.276-0.125-1.903-0.228-0.276-0.04-0.549-0.097-0.831-0.144-0.388-0.071-0.773-0.148-1.153-0.234-0.323-0.076-0.643-0.144-0.964-0.224-0.518-0.134-1.026-0.283-1.528-0.44-0.39-0.116-0.774-0.253-1.142-0.386-0.205-0.07-0.405-0.145-0.599-0.224-0.772-0.287-1.519-0.604-2.245-0.948-0.066-0.033-0.137-0.065-0.197-0.095-1.642-0.789-3.198-1.698-4.662-2.753l0.021-0.028c-6.894-4.978-11.636-12.731-12.614-21.625h-48.219c1.659 11.646 11.639 20.609 23.744 20.609 5.376 0 10.314-1.788 14.32-4.775v-0.044c0.896-0.668 1.754-1.386 2.545-2.175l4.952 4.743c-5.595 6.699-15.893 9.109-21.817 9.109-12.208 0-22.765-7.092-27.771-17.386-4.93 9.76-15.038 16.448-26.716 16.448-0.098 0-21.025-0.007-21.112-0.007v-59.839c0.087 0 21.014-0.003 21.112-0.003 11.679 0 21.787 6.689 26.716 16.448 5.006-10.293 15.563-17.388 27.771-17.388 12.056 0 22.5 6.921 27.577 17.007 2.243-4.442 5.512-8.273 9.512-11.166l-0.021-0.024c1.464-1.054 3.02-1.968 4.662-2.751 0.06-0.031 0.131-0.061 0.197-0.092 0.727-0.35 1.473-0.667 2.245-0.959 0.194-0.074 0.394-0.147 0.599-0.221 0.367-0.134 0.752-0.266 1.142-0.386 0.502-0.155 1.011-0.305 1.528-0.439 0.322-0.081 0.641-0.151 0.964-0.223 0.38-0.081 0.765-0.159 1.153-0.229 0.282-0.055 0.554-0.105 0.831-0.15 0.627-0.098 1.268-0.173 1.903-0.231 0.224-0.019 0.453-0.037 0.675-0.05 0.677-0.049 1.357-0.077 2.038-0.086h0.238zm-78.98 27.471h47.483c-1.655-11.646-11.638-20.613-23.74-20.613-12.1 0-22.08 8.966-23.74 20.613zm-30.74 26.676c12.853 0 23.279-10.428 23.279-23.279 0-12.858-10.426-23.284-23.279-23.284-0.058 0-9.418 0.008-14.328 0.012v46.537c4.91 0.005 14.27 0.014 14.33 0.014zm109.72-55.343h-0.232c-0.645 0.011-1.313 0.032-2.114 0.089-0.239 0.012-0.471 0.033-0.696 0.051-0.746 0.071-1.395 0.147-1.987 0.238-0.231 0.04-0.46 0.082-0.686 0.123l-0.174 0.034c-0.401 0.073-0.804 0.154-1.201 0.239-0.342 0.073-0.679 0.149-1.002 0.232-0.537 0.139-1.062 0.293-1.587 0.459-0.404 0.12-0.81 0.261-1.197 0.399-0.203 0.074-0.413 0.155-0.615 0.23-0.815 0.306-1.602 0.641-2.335 0.997l-0.085 0.041-0.111 0.051c-1.738 0.831-3.368 1.795-4.846 2.857l-1.079 0.78 0.042 0.045c-3.089 2.439-5.733 5.45-7.753 8.849-5.762-9.748-16.14-15.716-27.577-15.716s-22.106 6.242-27.787 16.073c-5.61-9.393-15.651-15.135-26.7-15.135l-10.74 0.003-10.354 0.003h-1.196v62.235h11.546l10.758 0.005c11.047 0 21.081-5.744 26.7-15.131 5.681 9.83 16.35 16.065 27.787 16.065 5.107 0 16.425-1.989 22.736-9.535l0.719-0.857-0.81-0.773-4.956-4.74-0.841-0.805-0.828 0.817c-0.694 0.691-1.484 1.369-2.42 2.065l-0.476 0.359v0.029c-3.877 2.742-8.401 4.192-13.123 4.192-10.806 0-20.165-7.743-22.318-18.218h45.741c1.17 8.138 5.465 15.547 11.95 20.641l-0.018 0.021 1.011 0.766c1.476 1.058 3.104 2.025 4.846 2.857 0.019 0.01 0.068 0.037 0.123 0.06l0.056 0.03c0.796 0.375 1.583 0.709 2.361 0.998 0.195 0.077 0.412 0.157 0.633 0.233 0.363 0.138 0.769 0.273 1.172 0.402 0.525 0.162 1.059 0.313 1.582 0.45 0.244 0.063 0.482 0.116 0.715 0.167l0.285 0.067c0.406 0.085 0.805 0.167 1.21 0.244l0.275 0.05c0.199 0.036 0.394 0.072 0.587 0.104 0.606 0.094 1.258 0.168 1.979 0.234 0.198 0.02 0.423 0.035 0.636 0.053h0.01l0.057 0.002c0.824 0.06 1.494 0.079 2.112 0.084 0.002 0.002 0.05 0.002 0.089 0.002 0.097 0 0.145 0 0.188-0.002 0.583-0.005 1.234-0.024 2.068-0.084 0.25-0.02 0.491-0.035 0.725-0.055 0.695-0.066 1.345-0.141 1.958-0.234 0.201-0.031 0.4-0.068 0.607-0.108l0.246-0.045c0.409-0.075 0.807-0.159 1.207-0.242l0.312-0.074c0.225-0.051 0.454-0.102 0.684-0.159 0.536-0.14 1.074-0.291 1.603-0.455 0.394-0.127 0.793-0.263 1.187-0.405 0.207-0.071 0.421-0.151 0.63-0.236 0.747-0.276 1.516-0.603 2.321-0.981l0.115-0.052 0.103-0.051c1.734-0.837 3.364-1.799 4.82-2.854l0.971-0.704-0.028-0.046c1.036-0.811 2.042-1.704 2.999-2.672l0.861-0.862-0.88-0.844-4.952-4.74-0.841-0.805-0.823 0.817c-0.96 0.953-1.995 1.813-3.074 2.567l-0.249 0.167-0.224 0.153c-0.492 0.325-0.959 0.604-1.422 0.863l-0.14 0.082c-0.058 0.034-0.117 0.066-0.177 0.097-1.23 0.666-2.539 1.222-3.891 1.646l-0.348 0.099c-0.548 0.169-1.096 0.309-1.706 0.444-0.165 0.034-0.328 0.065-0.488 0.102-0.52 0.099-1.079 0.188-1.712 0.259-0.066 0.008-0.149 0.021-0.229 0.027-0.067 0.011-0.137 0.02-0.2 0.026-0.77 0.075-1.482 0.113-2.193 0.113-0.706 0-1.421-0.038-2.179-0.113-0.08-0.007-0.151-0.016-0.214-0.026-0.082-0.006-0.159-0.02-0.233-0.027-0.62-0.071-1.184-0.158-1.71-0.259l-0.127-0.031-0.359-0.07c-0.604-0.136-1.152-0.275-1.682-0.435l-0.203-0.059-0.193-0.06c-1.321-0.415-2.627-0.971-3.857-1.632-0.063-0.034-0.115-0.063-0.175-0.099l-0.149-0.085c-0.481-0.275-0.969-0.569-1.42-0.868-0.152-0.099-0.291-0.196-0.434-0.288-6.18-4.302-9.847-11.303-9.847-18.755 0-7.462 3.667-14.461 9.813-18.733 0.155-0.107 0.306-0.214 0.461-0.315 0.444-0.297 0.927-0.586 1.432-0.867l0.143-0.087 0.2-0.113c1.212-0.649 2.521-1.206 3.865-1.633l0.085-0.022c0.098-0.028 0.191-0.054 0.282-0.085 0.543-0.157 1.112-0.306 1.679-0.428 0.166-0.038 0.327-0.07 0.483-0.099 0.522-0.104 1.085-0.188 1.728-0.266l0.23-0.026 0.209-0.026c0.764-0.073 1.476-0.108 2.173-0.108 0.7 0 1.416 0.035 2.187 0.108l0.194 0.026 0.254 0.026c0.629 0.077 1.194 0.162 1.703 0.266 0.164 0.031 0.32 0.061 0.476 0.099 0.582 0.125 1.151 0.271 1.696 0.433l0.227 0.066 0.164 0.046c1.316 0.419 2.625 0.976 3.862 1.637l0.202 0.119 0.097 0.054c0.505 0.279 0.973 0.562 1.455 0.878l0.242 0.166 0.233 0.163c1.067 0.74 2.102 1.602 3.062 2.555l0.823 0.822 0.841-0.806 4.952-4.742 0.88-0.844-0.861-0.864c-0.944-0.95-1.935-1.834-2.956-2.64l0.019-0.019-1.004-0.762c-1.467-1.057-3.092-2.02-4.838-2.857l-0.004-0.007-0.055-0.023-0.099-0.048c-0.794-0.377-1.582-0.714-2.381-1.011-0.194-0.075-0.403-0.156-0.608-0.23-0.397-0.141-0.797-0.279-1.201-0.399-0.52-0.166-1.05-0.32-1.583-0.458-0.328-0.084-0.66-0.153-0.989-0.23-0.417-0.088-0.815-0.169-1.224-0.242l-0.158-0.028c-0.23-0.047-0.46-0.089-0.697-0.129-0.594-0.091-1.242-0.167-1.972-0.237-0.234-0.019-0.47-0.04-0.699-0.052-0.809-0.057-1.486-0.078-2.115-0.089h-0.02zm-77.55 27.471c2.153-10.479 11.512-18.221 22.318-18.221 10.81 0 20.168 7.742 22.318 18.221h-44.64zm-45.3-17.486c5.085-0.004 13.077-0.01 13.128-0.01 12.173 0 22.083 9.908 22.083 22.088 0 12.174-9.91 22.082-22.083 22.082-0.064 0-8.043-0.008-13.128-0.01v-44.15z"/>
        <path d="m271.5 23.706c0 0.984-0.352 1.831-1.052 2.533-0.699 0.703-1.548 1.05-2.533 1.05-0.989 0-1.832-0.347-2.535-1.05-0.699-0.702-1.052-1.549-1.052-2.533 0-0.991 0.353-1.831 1.052-2.534 0.703-0.7 1.546-1.051 2.535-1.051 0.985 0 1.834 0.351 2.533 1.051 0.7 0.703 1.05 1.543 1.05 2.534m-0.79 0c0-0.77-0.273-1.43-0.818-1.986-0.547-0.556-1.202-0.827-1.976-0.827-0.77 0-1.429 0.271-1.975 0.827-0.545 0.557-0.82 1.217-0.82 1.986 0 0.771 0.275 1.432 0.82 1.986 0.546 0.548 1.205 0.827 1.975 0.827 0.773 0 1.428-0.279 1.976-0.827 0.54-0.554 0.81-1.214 0.81-1.986zm-0.85 1.699h-1.078l-1.044-1.309h-0.336v1.309h-0.845v-3.569h1.299c0.241 0 0.435 0.011 0.58 0.029 0.148 0.022 0.291 0.07 0.436 0.149 0.158 0.098 0.278 0.205 0.349 0.334 0.07 0.126 0.109 0.287 0.109 0.485 0 0.263-0.076 0.479-0.216 0.641-0.144 0.172-0.326 0.3-0.548 0.393l1.29 1.538zm-1.48-2.509c0-0.07-0.014-0.144-0.042-0.204-0.03-0.062-0.079-0.11-0.157-0.15-0.06-0.034-0.129-0.059-0.209-0.072-0.082-0.011-0.184-0.017-0.309-0.017h-0.263v1.009h0.203c0.127 0 0.242-0.011 0.348-0.031 0.113-0.021 0.194-0.057 0.255-0.104 0.058-0.046 0.103-0.103 0.133-0.171 0.03-0.07 0.05-0.154 0.05-0.26z"/>
        <path d="m115.65 100.75h1.901c-0.691 1.713-1.901 2.568-3.64 2.568-1.143 0-2.085-0.373-2.815-1.121-0.729-0.745-1.097-1.69-1.097-2.84 0-1.104 0.37-2.042 1.106-2.812 0.745-0.773 1.666-1.155 2.775-1.155 0.852 0 1.59 0.221 2.233 0.664 0.641 0.442 1.106 1.065 1.397 1.86 0.183 0.5 0.274 1.185 0.274 2.037h-5.97c0.206 1.187 0.906 1.775 2.115 1.775 0.462 0 0.805-0.053 1.036-0.157 0.32-0.16 0.54-0.43 0.69-0.82m0.29-2.17c-0.244-1.06-0.92-1.59-2.027-1.59-1.075 0-1.76 0.53-2.052 1.59h4.08z"/>
        <path d="m137.24 103.1h-1.88v-0.818c-0.567 0.683-1.349 1.021-2.333 1.021-1.089 0-1.98-0.376-2.678-1.136-0.694-0.767-1.045-1.702-1.045-2.818 0-1.097 0.351-2.032 1.036-2.791 0.689-0.772 1.575-1.154 2.663-1.154 0.935 0 1.72 0.329 2.357 0.986v-4.406h1.88v11.123zm-1.83-3.727c0-0.645-0.201-1.187-0.588-1.626-0.389-0.439-0.902-0.652-1.54-0.652-0.626 0-1.141 0.213-1.541 0.652-0.407 0.439-0.606 0.971-0.606 1.598 0 0.614 0.197 1.15 0.594 1.599 0.4 0.442 0.911 0.671 1.52 0.671 0.617 0 1.135-0.221 1.54-0.66 0.42-0.43 0.63-0.961 0.63-1.577z"/>
        <path d="m156.09 103.1h-1.792v-0.839c-0.444 0.699-1.084 1.04-1.908 1.04-0.939 0-1.66-0.295-2.182-0.892-0.491-0.557-0.732-1.313-0.732-2.267v-4.521h1.875v4.103c0 1.248 0.457 1.877 1.375 1.877 0.986 0 1.485-0.713 1.485-2.14v-3.84h1.878v7.48z"/>
        <path d="m175.7 100.4c-0.221 0.914-0.673 1.632-1.345 2.141-0.677 0.521-1.484 0.775-2.436 0.775-1.155 0-2.091-0.373-2.834-1.121-0.743-0.745-1.117-1.69-1.117-2.832 0-1.166 0.369-2.118 1.097-2.857 0.724-0.735 1.666-1.105 2.842-1.105 0.982 0 1.792 0.243 2.448 0.724 0.688 0.509 1.129 1.239 1.331 2.181h-1.88c-0.372-0.81-1.026-1.209-1.962-1.209-0.646 0-1.146 0.209-1.5 0.635-0.358 0.431-0.534 0.977-0.534 1.633 0 0.633 0.191 1.164 0.584 1.605 0.388 0.438 0.895 0.661 1.526 0.661 0.96 0 1.585-0.407 1.886-1.229h1.88z"/>
        <path d="m195.14 103.1h-1.825v-0.881c-0.564 0.727-1.348 1.083-2.347 1.083-1.104 0-2.006-0.376-2.704-1.136-0.702-0.767-1.051-1.702-1.051-2.82 0-1.105 0.343-2.039 1.042-2.8 0.688-0.762 1.584-1.144 2.68-1.144 1.015 0 1.789 0.344 2.33 1.031v-0.812h1.875v7.485zm-1.82-3.712c0-0.638-0.207-1.177-0.617-1.622-0.413-0.453-0.938-0.671-1.556-0.671-0.62 0-1.123 0.218-1.518 0.663-0.396 0.442-0.593 0.971-0.593 1.585 0 0.606 0.204 1.142 0.615 1.598 0.408 0.456 0.914 0.688 1.523 0.688 0.582 0 1.091-0.232 1.516-0.68 0.43-0.45 0.64-0.972 0.64-1.562z"/>
        <polygon points="210.52 97.095 209.45 97.095 209.45 103.1 207.57 103.1 207.57 97.095 206.77 97.095 206.77 95.619 207.57 95.619 207.57 93.162 209.45 93.162 209.45 95.619 210.52 95.619"/>
        <path d="m224.06 103.1h-1.875v-7.478h1.875v7.478zm-0.06-8.984h-1.778v-1.833h1.778v1.833z"/>
        <path d="m243.97 99.312c0 1.184-0.38 2.137-1.129 2.876-0.759 0.744-1.726 1.111-2.904 1.111-1.168 0-2.133-0.371-2.89-1.115-0.763-0.746-1.132-1.706-1.132-2.872 0-1.131 0.387-2.067 1.16-2.812 0.772-0.746 1.729-1.114 2.862-1.114 1.144 0 2.109 0.368 2.878 1.114 0.77 0.748 1.15 1.685 1.15 2.816m-6.14 0.05c0 0.642 0.193 1.171 0.575 1.592 0.375 0.422 0.887 0.631 1.532 0.631 0.649 0 1.155-0.209 1.54-0.631 0.382-0.421 0.569-0.95 0.569-1.592 0-0.67-0.185-1.207-0.556-1.632-0.38-0.418-0.895-0.625-1.553-0.625-0.645 0-1.157 0.212-1.532 0.639-0.38 0.427-0.57 0.966-0.57 1.622z"/>
        <path d="m262.5 103.1h-1.877v-4.172c0-1.194-0.476-1.793-1.408-1.793-1.012 0-1.515 0.715-1.515 2.143v3.822h-1.877v-7.478h1.807v0.836c0.46-0.674 1.139-1.006 2.027-1.006 0.936 0 1.633 0.261 2.119 0.794 0.48 0.522 0.724 1.261 0.724 2.203v4.651z"/>
        <path d="m61.966 23.25c-0.697 0-1.362 0.104-2 0.289 1.379 0.385 2.401 1.639 2.401 3.136 0 1.809-1.467 3.271-3.272 3.271-1.81 0-3.272-1.463-3.272-3.271l0.004-0.005c-0.694 1.111-1.104 2.419-1.104 3.825 0 3.999 3.242 7.246 7.244 7.246 4.003 0 7.241-3.247 7.241-7.246s-3.239-7.245-7.242-7.245"/>
        <path d="m31.48 23.25c-0.692 0-1.361 0.104-2.002 0.289 1.383 0.385 2.4 1.639 2.4 3.136 0 1.809-1.462 3.271-3.268 3.271-1.809 0-3.27-1.463-3.27-3.271v-0.006c-0.693 1.112-1.103 2.42-1.103 3.826 0 3.999 3.242 7.246 7.242 7.246 4.004 0 7.243-3.247 7.243-7.246s-3.238-7.245-7.242-7.245"/>
        <path d="m46.715 0h-46.53v4.633h23.305c-0.686 3.14-1.451 6.614-2.621 10.951 5.756-5.634 19.842-5.472 25.847 4.449v-20.033zm-0.488 14.58c-5.885-6.306-16.539-6.459-20.359-4.725 0.481-1.625 0.9-3.607 1.312-5.068h19.047v9.793z"/>
        <path d="m96.804 19.442v8.284h5.397s-0.024-8.284-0.01-8.284c0-1.278-0.896-2.346-2.086-2.621v-16.821h-53.388v19.75c6.22-9.638 20.298-9.8 26.057-4.166-1.166-4.337-1.932-7.812-2.623-10.951h28.751v12.188c-1.195 0.274-2.096 1.34-2.096 2.621m-49.398-4.862v-9.793h19.056c0.405 1.461 0.827 3.443 1.31 5.068-3.818-1.734-14.474-1.581-20.366 4.725z"/>
        <path d="m46.525 46.086l-3.646-3.7c3.124-2.998 5.081-7.212 5.081-11.891 0-9.099-7.375-16.479-16.479-16.479-4.061 0-7.775 1.48-10.653 3.922h-20.828c0 20.884 2.249 66.805 46.506 85.525 0-5.838 0.019-57.374 0.019-57.374m-1.998-15.591c0 7.21-5.842 13.051-13.047 13.051s-13.05-5.841-13.05-13.051c0-7.207 5.845-13.049 13.05-13.049s13.047 5.842 13.047 13.049zm1.521 69.348c-8.985-4.198-16.144-9.766-21.811-16.246 5.069-7.745 5.217-21.439 4.32-27.015 0.075 4.726-1.97 19.035-7.497 23.058-12.216-16.414-16.119-37.605-16.119-57.282h12.222c-1.371 2.403-2.163 5.177-2.163 8.137 0 9.102 7.381 16.481 16.479 16.481 3.361 0 6.485-1.013 9.091-2.742l5.478 5.55v50.059z"/>
        <path d="m72.619 17.938c-2.872-2.441-6.59-3.922-10.652-3.922-6.898 0-12.794 4.242-15.251 10.249v12.457c0.848 2.07 2.094 3.935 3.653 5.484l-3.843 3.88s-0.019 50.735-0.019 57.377c44.253-18.721 46.505-64.642 46.505-85.525h-20.393zm-23.706 12.557c0-7.207 5.847-13.049 13.054-13.049 7.208 0 13.049 5.842 13.049 13.049 0 7.21-5.841 13.051-13.049 13.051s-13.054-5.841-13.054-13.051zm15.596 26.087c-0.891 5.567-0.743 19.224 4.299 26.976-5.663 6.504-12.835 12.085-21.844 16.287v-50.006l5.684-5.755c2.65 1.822 5.863 2.893 9.319 2.893 9.098 0 16.479-7.38 16.479-16.481 0-2.96-0.791-5.734-2.162-8.137h11.788c0 19.666-3.901 40.846-16.094 57.254-5.503-4.055-7.542-18.318-7.469-23.031z"/>
      </g>
    </g>
  </switch>
</svg>
